<svg width="302" height="50" viewBox="0 0 302 50" fill="none" xmlns="http://www.w3.org/2000/svg">
<path d="M0 25C0 11.1929 11.1929 0 25 0H220C233.807 0 245 11.1929 245 25V25C245 38.8071 233.807 50 220 50H25C11.1929 50 0 38.8071 0 25V25Z" fill="#ffffff62"/>
<ellipse cx="280" cy="23.5" rx="22" ry="22.5" fill="#ffffff62"/>
<path d="M243 16H259.271L259 17L258.5 19L258 22V23V24V25L258.5 25.5V26L258 25L258.5 28L259 30L259.347 31H244.179L244.392 30.5L244.785 28L245 26V24L244.785 21.9353L244.5 21V20L244 18L243 16Z" fill="#ffffff62"/>
<path d="M242 13H243C244.105 13 245 13.8954 245 15V16H243L242 13Z" fill="#ffffff62" />
<path d="M258 15C258 13.8954 258.895 13 260 13H260.5L260 14L259.5 16H258V15Z" fill="#ffffff62" />
<path d="M244 31H246V32C246 33.1046 245.105 34 244 34H243L243.5 33.5L244 31.5V31Z" fill="#ffffff62" />
<path d="M258 31H259.5L260 33L260.5 34H260C258.895 34 258 33.1046 258 32V31Z" fill="#ffffff62" />
</svg>
