<svg width="302" height="50" viewBox="0 0 302 50" fill="none" xmlns="http://www.w3.org/2000/svg">
<g clip-path="url(#clip0_2029_17)">
<path d="M0 25C0 11.1929 11.1929 0 25 0H220C233.807 0 245 11.1929 245 25C245 38.8071 233.807 50 220 50H25C11.1929 50 0 38.8071 0 25Z" fill="white" fill-opacity="0.384314"/>
<path d="M280 46C292.15 46 302 35.9264 302 23.5C302 11.0736 292.15 1 280 1C267.85 1 258 11.0736 258 23.5C258 35.9264 267.85 46 280 46Z" fill="white" fill-opacity="0.384314"/>
<path d="M243 16H259.271L259 17L258.5 19L258 22V23V24V25L258.5 25.5V26L258 25L258.5 28L259 30L259.347 31H244.179L244.392 30.5L244.785 28L245 26V24L244.785 21.9353L244.5 21V20L244 18L243 16Z" fill="white" fill-opacity="0.384314"/>
<path d="M242 13H243C244.105 13 245 13.8954 245 15V16H243L242 13Z" fill="white" fill-opacity="0.384314"/>
<path d="M258 15C258 13.8954 258.895 13 260 13H260.5L260 14L259.5 16H258V15Z" fill="white" fill-opacity="0.384314"/>
<path d="M244 31H246V32C246 33.1046 245.105 34 244 34H243L243.5 33.5L244 31.5V31Z" fill="white" fill-opacity="0.384314"/>
<path d="M258 31H259.5L260 33L260.5 34H260C258.895 34 258 33.1046 258 32V31Z" fill="white" fill-opacity="0.384314"/>
<path d="M288 33H286V31C286 29.3431 284.657 28 283 28H277C275.343 28 274 29.3431 274 31V33H272V31C272 28.2386 274.239 26 277 26H283C285.761 26 288 28.2386 288 31V33ZM280 24C276.686 24 274 21.3137 274 18C274 14.6863 276.686 12 280 12C283.314 12 286 14.6863 286 18C286 21.3137 283.314 24 280 24ZM280 22C282.209 22 284 20.2091 284 18C284 15.7909 282.209 14 280 14C277.791 14 276 15.7909 276 18C276 20.2091 277.791 22 280 22Z" fill="white"/>
</g>
<defs>
<clipPath id="clip0_2029_17">
<rect width="302" height="50" fill="white"/>
</clipPath>
</defs>
</svg>
