<?xml version="1.0" standalone="no"?>
<!DOCTYPE svg PUBLIC "-//W3C//DTD SVG 20010904//EN"
 "http://www.w3.org/TR/2001/REC-SVG-20010904/DTD/svg10.dtd">
<svg version="1.0" xmlns="http://www.w3.org/2000/svg"
 width="512.000000pt" height="512.000000pt" viewBox="0 0 512.000000 512.000000"
 preserveAspectRatio="xMidYMid meet" fill="white">

<g transform="translate(0.000000,512.000000) scale(0.100000,-0.100000)"
fill="#d6d6d6" stroke="none">
<path d="M2500 5098 c-20 -14 -40 -38 -47 -58 -9 -27 -12 -580 -12 -2335 l-1
-2300 -487 487 c-269 268 -501 492 -516 497 -65 25 -126 0 -152 -62 -29 -70
-41 -56 612 -708 410 -410 617 -610 636 -614 15 -4 39 -4 55 0 34 8 1228 1195
1248 1241 36 83 -50 173 -143 149 -19 -4 -193 -171 -520 -498 l-493 -491 -1
2299 c0 1755 -3 2308 -12 2334 -25 71 -107 100 -167 59z"/>
</g>
</svg>
