<svg xmlns="http://www.w3.org/2000/svg" width="1em" height="1em" viewBox="0 0 512 512" ><path fill="#bdff00" d="M74.247 167.854C-90.602 374.671 219.872 342.307 219.872 342.307C138.961 289.214 74.247 167.854 74.247 167.854m5.027 140.538c-8.384-13.955-4.365-37.814 11.23-68.749c3.447 4.516 7.256 9.333 11.335 14.406l19.178 62.17l7.346-31.115a561 561 0 0 0 50.158 49.33c-51.874 1.67-88.197-7.677-99.247-26.027zm358.494-140.538s-64.729 121.36-145.625 174.453c-.015 0 310.459 32.364 145.61-174.453zm-5.028 140.538c-11.049 18.38-47.372 27.713-99.246 26.072a561 561 0 0 0 50.158-49.33l7.33 31.085l19.179-62.215a734 734 0 0 0 11.335-14.406c15.595 30.995 19.66 54.84 11.23 68.809z"/></svg>