<svg width="30" height="30" viewBox="0 0 30 30" fill="none" xmlns="http://www.w3.org/2000/svg">
<path d="M13.5809 11.345C12.8932 11.345 12.4543 11.9649 11.6849 13.4127C11.6497 13.4791 11.6978 13.559 11.773 13.559H15.5426C15.6187 13.559 15.6666 13.4772 15.6293 13.4109C14.8548 12.0378 14.267 11.345 13.5809 11.345Z" fill="#bdff00"/>
<path d="M12.0022 14.3254C11.2871 14.3459 10.8425 14.9195 10.4236 15.0066C10.0447 15.0747 9.73948 15.035 9.63422 15.0066C8.87647 14.8703 7.68721 14.155 7.18731 13.8144C6.30326 13.2013 6.02964 13.8428 6.00333 14.2402C5.87755 18.3109 9.34278 19.8478 11.1124 20.1125C11.127 20.1147 11.1403 20.12 11.1527 20.1281L11.9803 20.6776C12.0511 20.7246 12.0348 20.836 11.9569 20.8701C11.2316 21.1871 10.9633 21.9492 10.907 22.395C10.8998 22.4519 10.9455 22.5 11.0029 22.5H16.2285C16.2892 22.5 16.336 22.446 16.3244 22.3864C16.1918 21.7005 15.7748 21.1877 15.4789 20.9251C15.4165 20.8697 15.4333 20.7561 15.5088 20.7206C15.9611 20.5075 16.5991 20.0215 16.8961 19.7751C17.1855 19.548 17.9064 18.9747 18.4747 18.4978C19.043 18.021 20.2902 17.5044 20.8427 17.3057C22.9161 16.411 23.7622 15.0965 23.9676 14.4452C23.9868 14.3844 23.9396 14.3254 23.8758 14.3254H22.7071C22.6762 14.3254 22.6471 14.3396 22.6282 14.3641L22.459 14.5825C22.2696 14.855 22.053 15.0066 21.9477 15.0917C20.4954 16.1817 18.9909 16.1734 18.08 15.7729C17.7906 15.631 17.1013 15.245 16.6593 14.8363C16.2172 14.4275 15.7384 14.3254 15.5542 14.3254H12.0022Z" fill="#bdff00"/>
<path d="M19.6587 11.6856C22.4371 12.0944 23.237 13.1616 23.2896 13.6441C23.237 13.0481 22.7844 11.7367 21.3952 11.2598C20.3633 10.9057 19.9934 10.4982 19.9037 10.219C19.8897 10.1754 20.013 10.1311 20.0533 10.1529C21.3794 10.9022 21.8162 10.0109 21.8688 9.47164C21.8983 8.94051 21.7583 8.22843 20.3691 7.68345C18.9799 7.13847 18.2847 7.91419 18.0011 8.62013C17.1802 10.6638 18.6348 11.5665 19.6587 11.6856Z" fill="#bdff00"/>
<path d="M13.5809 11.345C12.8932 11.345 12.4543 11.9649 11.6849 13.4127C11.6497 13.4791 11.6978 13.559 11.773 13.559H15.5426C15.6187 13.559 15.6666 13.4772 15.6293 13.4109C14.8548 12.0378 14.267 11.345 13.5809 11.345Z" stroke="#bdff00" stroke-width="0.199614"/>
<path d="M12.0022 14.3254C11.2871 14.3459 10.8425 14.9195 10.4236 15.0066C10.0447 15.0747 9.73948 15.035 9.63422 15.0066C8.87647 14.8703 7.68721 14.155 7.18731 13.8144C6.30326 13.2013 6.02964 13.8428 6.00333 14.2402C5.87755 18.3109 9.34278 19.8478 11.1124 20.1125C11.127 20.1147 11.1403 20.12 11.1527 20.1281L11.9803 20.6776C12.0511 20.7246 12.0348 20.836 11.9569 20.8701C11.2316 21.1871 10.9633 21.9492 10.907 22.395C10.8998 22.4519 10.9455 22.5 11.0029 22.5H16.2285C16.2892 22.5 16.336 22.446 16.3244 22.3864C16.1918 21.7005 15.7748 21.1877 15.4789 20.9251C15.4165 20.8697 15.4333 20.7561 15.5088 20.7206C15.9611 20.5075 16.5991 20.0215 16.8961 19.7751C17.1855 19.548 17.9064 18.9747 18.4747 18.4978C19.043 18.021 20.2902 17.5044 20.8427 17.3057C22.9161 16.411 23.7622 15.0965 23.9676 14.4452C23.9868 14.3844 23.9396 14.3254 23.8758 14.3254H22.7071C22.6762 14.3254 22.6471 14.3396 22.6282 14.3641L22.459 14.5825C22.2696 14.855 22.053 15.0066 21.9477 15.0917C20.4954 16.1817 18.9909 16.1734 18.08 15.7729C17.7906 15.631 17.1013 15.245 16.6593 14.8363C16.2172 14.4275 15.7384 14.3254 15.5542 14.3254H12.0022Z" stroke="#bdff00" stroke-width="0.199614"/>
<path d="M19.6587 11.6856C22.4371 12.0944 23.237 13.1616 23.2896 13.6441C23.237 13.0481 22.7844 11.7367 21.3952 11.2598C20.3633 10.9057 19.9934 10.4982 19.9037 10.219C19.8897 10.1754 20.013 10.1311 20.0533 10.1529C21.3794 10.9022 21.8162 10.0109 21.8688 9.47164C21.8983 8.94051 21.7583 8.22843 20.3691 7.68345C18.9799 7.13847 18.2847 7.91419 18.0011 8.62013C17.1802 10.6638 18.6348 11.5665 19.6587 11.6856Z" stroke="#bdff00" stroke-width="0.199614"/>
<path d="M9.71071 16.5473L9.97601 18.3381C9.98696 18.412 9.91582 18.4706 9.84735 18.4407C8.74798 17.9603 8.20901 16.5395 8.037 15.7054C8.02004 15.6232 8.10814 15.5635 8.18057 15.606L9.6625 16.4758C9.68855 16.4911 9.70628 16.5174 9.71071 16.5473Z" fill="black" stroke="black" stroke-width="0.199614"/>
<circle cx="15" cy="15" r="14.5" stroke="#bdff00"/>
</svg>
